<svg width="74" height="74" viewBox="0 0 74 74" fill="none" xmlns="http://www.w3.org/2000/svg">
<mask id="mask0_4281_14662" style="mask-type:alpha" maskUnits="userSpaceOnUse" x="0" y="0" width="74" height="74">
<rect width="74" height="74" fill="#D9D9D9"/>
</mask>
<g mask="url(#mask0_4281_14662)">
<path d="M27.75 64.75C22.6111 64.75 18.2431 62.9514 14.6458 59.3542C11.0486 55.7569 9.25 51.3889 9.25 46.25V27.75C9.25 22.6111 11.0486 18.2431 14.6458 14.6458C18.2431 11.0486 22.6111 9.25 27.75 9.25H46.25C51.3889 9.25 55.7569 11.0486 59.3542 14.6458C62.9514 18.2431 64.75 22.6111 64.75 27.75V46.25C64.75 51.3889 62.9514 55.7569 59.3542 59.3542C55.7569 62.9514 51.3889 64.75 46.25 64.75H27.75ZM33.9167 49.3333L52.4167 30.8333L48.1 26.5167L33.9167 40.7L27.1333 33.9167L22.8167 38.2333L33.9167 49.3333ZM27.75 58.5833H46.25C49.6417 58.5833 52.5451 57.3757 54.9604 54.9604C57.3757 52.5451 58.5833 49.6417 58.5833 46.25V27.75C58.5833 24.3583 57.3757 21.4549 54.9604 19.0396C52.5451 16.6243 49.6417 15.4167 46.25 15.4167H27.75C24.3583 15.4167 21.4549 16.6243 19.0396 19.0396C16.6243 21.4549 15.4167 24.3583 15.4167 27.75V46.25C15.4167 49.6417 16.6243 52.5451 19.0396 54.9604C21.4549 57.3757 24.3583 58.5833 27.75 58.5833Z" fill="#00A8CA"/>
</g>
</svg>
