<svg width="30" height="31" viewBox="0 0 30 31" fill="none" xmlns="http://www.w3.org/2000/svg">
<g opacity="0.6">
<path d="M29.8172 15.1832C29.6687 14.9273 27.2614 10.8548 22.9693 8.13554L26.6966 4.28405L25.8537 3.41309L21.8937 7.50511C19.9263 6.44885 17.6193 5.71683 15 5.71683C5.76974 5.71683 0.406875 14.797 0.182764 15.1832L0 15.4996L0.182764 15.816C0.331263 16.0719 2.73855 20.1444 7.03062 22.8637L3.30337 26.7151L4.14623 27.5861L8.10626 23.494C10.0737 24.5503 12.3806 25.2823 14.9999 25.2823C24.2302 25.2823 29.5931 16.2021 29.8172 15.8159L29.9999 15.4995L29.8172 15.1832ZM7.91968 21.945C4.35001 19.7582 2.06416 16.5169 1.40405 15.4996C2.4309 13.9171 7.38622 6.94874 15.0001 6.94874C17.2366 6.94874 19.2417 7.5524 20.9873 8.44182L19.1487 10.3418C18.0226 9.37296 16.5765 8.78869 15.0001 8.78869C11.4196 8.78869 8.50623 11.7992 8.50623 15.4996C8.50623 17.1284 9.07153 18.6226 10.0089 19.7862L7.91968 21.945ZM19.143 12.0895C19.8666 13.0263 20.3023 14.2105 20.3023 15.4996C20.3023 18.5209 17.9239 20.9787 14.9999 20.9787C13.7526 20.9787 12.6066 20.5284 11.7 19.7805L19.143 12.0895ZM10.8573 18.9094C10.1338 17.9727 9.69828 16.7886 9.69828 15.4996C9.69828 12.4783 12.0767 10.0205 15 10.0205C16.2476 10.0205 17.3935 10.4708 18.3001 11.2185L10.8573 18.9094ZM15 24.0505C12.7634 24.0505 10.7584 23.4468 9.01275 22.5574L10.8516 20.6572C11.9776 21.6261 13.4238 22.2105 15 22.2105C18.5811 22.2105 21.4944 19.2 21.4944 15.4996C21.4944 13.8707 20.929 12.3763 19.9915 11.2127L22.0803 9.05424C25.65 11.241 27.9358 14.4823 28.5959 15.4996C27.5692 17.0821 22.6138 24.0505 15 24.0505Z" fill="#607D8B"/>
</g>
</svg>
