<svg width="42" height="29" viewBox="0 0 42 29" fill="none" xmlns="http://www.w3.org/2000/svg">
<path d="M41.1739 14.4639C41.1736 14.211 41.091 13.9636 40.936 13.7514C40.781 13.5391 40.5601 13.371 40.2999 13.2673L37.2239 12.0441L40.2919 10.8227C40.5522 10.7191 40.773 10.551 40.928 10.3387C41.083 10.1264 41.1654 9.87897 41.1654 9.62612C41.1654 9.37327 41.083 9.12581 40.928 8.91352C40.773 8.70123 40.5522 8.53316 40.2919 8.42953L27.5919 3.37548L27.5679 3.35776L21.6059 0.992939C21.4154 0.917125 21.2088 0.87793 20.9999 0.87793C20.7911 0.87793 20.5845 0.917125 20.3939 0.992939L1.69795 8.4313C1.43717 8.5347 1.21572 8.70278 1.06033 8.91527C0.904948 9.12775 0.822266 9.37556 0.822266 9.62878C0.822266 9.882 0.904948 10.1298 1.06033 10.3423C1.21572 10.5548 1.43717 10.7229 1.69795 10.8263L4.76595 12.0441L1.69795 13.2673C1.43774 13.3709 1.21686 13.539 1.0619 13.7513C0.906938 13.9636 0.824496 14.211 0.824496 14.4639C0.824496 14.7167 0.906938 14.9642 1.0619 15.1765C1.21686 15.3888 1.43774 15.5569 1.69795 15.6605L4.85395 16.9173L1.69795 18.1724C1.43774 18.2761 1.21686 18.4441 1.0619 18.6564C0.906938 18.8687 0.824496 19.1162 0.824496 19.369C0.824496 19.6219 0.906938 19.8693 1.0619 20.0816C1.21686 20.2939 1.43774 20.462 1.69795 20.5656L20.3939 28.0111C20.5845 28.0869 20.7911 28.1261 20.9999 28.1261C21.2088 28.1261 21.4154 28.0869 21.6059 28.0111L40.3019 20.5656C40.5622 20.462 40.783 20.2939 40.938 20.0816C41.093 19.8693 41.1754 19.6219 41.1754 19.369C41.1754 19.1162 41.093 18.8687 40.938 18.6564C40.783 18.4441 40.5622 18.2761 40.3019 18.1724L37.1439 16.9173L40.3019 15.6605C40.5617 15.5565 40.7822 15.3883 40.9368 15.1761C41.0915 14.9638 41.1738 14.7166 41.1739 14.4639ZM14.9359 5.46021L18.1499 6.73835L14.6959 8.11221L11.5279 6.81635L14.9359 5.46021ZM21.0359 7.88707L24.5319 9.27867L21.0359 10.711L17.5399 9.27867L21.0359 7.88707ZM30.5059 6.82344L27.3759 8.10512L23.9219 6.73126L27.0999 5.4673L30.5059 6.82344ZM18.2239 11.8668L14.2239 13.5084L10.5639 12.0548L14.6819 10.4168L18.2239 11.8668ZM21.0419 13.0209L24.9719 14.6305L21.0059 16.2083L17.0699 14.6447L21.0419 13.0209ZM27.8299 13.4924L23.8539 11.8668L27.3899 10.4185L31.4719 12.0423L27.8299 13.4924ZM34.3579 10.8918L30.2339 9.2503L33.3659 7.96685L37.5359 9.62612L34.3579 10.8918ZM20.9999 3.0493L24.2139 4.32744L21.0379 5.59139L17.8239 4.31326L20.9999 3.0493ZM8.66995 7.95444L11.8379 9.25208L7.67795 10.9078L4.46195 9.62789L8.66995 7.95444ZM37.5359 19.3708L20.9999 25.9512L4.46195 19.3708L7.74195 18.0714L20.3939 23.1059C20.5846 23.1816 20.7911 23.2208 20.9999 23.2208C21.2088 23.2208 21.4153 23.1816 21.6059 23.1059L34.2579 18.0714L37.5359 19.3708ZM20.9999 21.0443L4.46195 14.4639L7.66195 13.1946L20.4019 18.2628C20.5925 18.3388 20.799 18.378 21.0079 18.378C21.2169 18.378 21.4234 18.3388 21.6139 18.2628L34.3539 13.1946L37.5539 14.4639L20.9999 21.0443Z" fill="#00A8CA"/>
</svg>
