<svg width="11" height="14" viewBox="0 0 11 14" fill="none" xmlns="http://www.w3.org/2000/svg">
<path d="M5.25 6.65C4.75272 6.65 4.27581 6.46563 3.92417 6.13744C3.57254 5.80925 3.375 5.36413 3.375 4.9C3.375 4.43587 3.57254 3.99075 3.92417 3.66256C4.27581 3.33437 4.75272 3.15 5.25 3.15C5.74728 3.15 6.22419 3.33437 6.57583 3.66256C6.92746 3.99075 7.125 4.43587 7.125 4.9C7.125 5.12981 7.0765 5.35738 6.98227 5.5697C6.88805 5.78202 6.74994 5.97493 6.57583 6.13744C6.40172 6.29994 6.19502 6.42884 5.96753 6.51679C5.74005 6.60473 5.49623 6.65 5.25 6.65ZM5.25 0C3.85761 0 2.52226 0.516248 1.53769 1.43518C0.553123 2.3541 0 3.60044 0 4.9C0 8.575 5.25 14 5.25 14C5.25 14 10.5 8.575 10.5 4.9C10.5 3.60044 9.94688 2.3541 8.96231 1.43518C7.97774 0.516248 6.64239 0 5.25 0Z" fill="#00A8CA"/>
</svg>
