<svg width="18" height="20" viewBox="0 0 18 20" fill="none" xmlns="http://www.w3.org/2000/svg">
<path d="M16.8938 3.26888L9.69375 0.143571C9.47443 0.0487881 9.23932 0 9.00187 0C8.76443 0 8.52932 0.0487881 8.31 0.143571L1.11 3.26888C0.43875 3.55797 0 4.24163 0 4.99951C0 12.7542 4.29375 18.1141 8.30625 19.8564C8.74875 20.0479 9.2475 20.0479 9.69 19.8564C12.9038 18.4618 18 13.6449 18 4.99951C18 4.24163 17.5613 3.55797 16.8938 3.26888ZM9.00375 17.4343L9 2.55006L15.5963 5.41362C15.4725 11.3283 12.5175 15.6138 9.00375 17.4343Z" fill="#0055FF"/>
</svg>
