<svg width="18" height="20" viewBox="0 0 18 20" fill="none" xmlns="http://www.w3.org/2000/svg">
<path d="M15.4246 12.0427L16.3848 9.59736C16.5455 9.18719 16.2362 8.74968 15.7821 8.74968H13.4317C13.8737 8.01138 14.1469 7.1637 14.1469 6.24961V6.23789C15.7219 5.93319 16.7183 5.49177 16.7183 4.99957C16.7183 4.48003 15.6214 4.01908 13.9018 3.71047C13.5321 2.42919 12.817 1.14009 12.2705 0.476007C11.8888 0.0111497 11.2299 -0.133386 10.6835 0.132247L9.57455 0.671325C9.21295 0.847111 8.78705 0.847111 8.42545 0.671325L7.31652 0.132247C6.77009 -0.133386 6.11116 0.0111497 5.72946 0.476007C5.18705 1.14009 4.46786 2.42919 4.09821 3.71047C2.38259 4.01908 1.28571 4.48003 1.28571 4.99957C1.28571 5.49177 2.28214 5.93319 3.85714 6.23789V6.24961C3.85714 7.1637 4.13036 8.01138 4.57232 8.74968H2.26205C1.8 8.74968 1.49062 9.20673 1.67143 9.6208L2.70804 11.9724C1.09688 12.8826 0 14.5584 0 16.4999V18.25C0 19.2148 0.807589 20 1.8 20H16.2C17.1924 20 18 19.2148 18 18.25V16.4999C18 14.6092 16.9634 12.9685 15.4246 12.0427ZM7.07143 18.75L5.4 11.2498L7.39286 12.4998L8.35714 14.0623L7.07143 18.75ZM10.9286 18.75L9.64286 14.0623L10.6071 12.4998L12.6 11.2498L10.9286 18.75ZM12.604 7.08948C12.4473 7.55433 12.3228 8.05044 11.9411 8.3942C11.5353 8.75749 10.0125 9.26923 9.36964 7.41761C9.25714 7.08948 8.75089 7.08948 8.63437 7.41761C7.95134 9.3786 6.38437 8.68327 6.06295 8.3942C5.68125 8.05044 5.55268 7.55433 5.4 7.08948C5.36786 6.99182 5.14688 6.86681 5.14688 6.86291V6.44102C6.28393 6.58165 7.59777 6.66759 9.00402 6.66759C10.4103 6.66759 11.7241 6.58556 12.8612 6.44102V6.86291C12.8571 6.86681 12.6362 6.98791 12.604 7.08948Z" fill="#0055FF"/>
</svg>
